<svg width="766" height="400" viewBox="0 0 766 400" fill="none" xmlns="http://www.w3.org/2000/svg">
<g clip-path="url(#clip0_39_7064)">
<path d="M605 32.5C624.237 31.2965 667.426 66.3883 688.53 93.4126C711.399 122.572 719.178 142.659 725.412 189.499C727.412 187.611 728.877 185.879 730.451 184.587C732.181 183.032 734.026 181.407 736.055 180.345C736.63 179.997 738.338 180.48 738.901 181.15C739.465 181.821 739.409 183.543 738.984 184.138C734.812 189.704 730.491 195.024 726.13 200.537C724.665 202.269 722.837 202.365 720.99 200.616C714.289 193.713 707.472 186.879 700.81 179.782C699.343 178.14 698.456 175.641 696.96 173.173C703.1 172.15 705.219 176.94 708.428 179.381C711.827 181.875 714.801 184.965 718.799 188.447C719.027 174.303 716.767 161.5 712.638 148.987C697.676 103.052 665.5 68.7431 626.773 43.2573C621.321 40.4889 615.634 38.3694 610.142 35.794C608.744 34.7855 607.421 33.9003 605 32.5Z" fill="white"/>
</g>
<g clip-path="url(#clip1_39_7064)">
<path d="M198.691 28.5648C191.557 22.5929 183.42 22.7891 175.98 23.8582C165.656 25.4715 155.444 28.1159 145.928 31.6333C102.596 48.8977 73.41 78.8462 56.8267 118.948C52.6507 129.159 50.0282 140.128 46.4284 151.952C36.46 144.506 32.5478 132.474 22.6998 124.288C20.5359 129.001 22.7371 132.651 24.474 135.719C31.6536 148.283 39.1054 160.891 46.8697 173.297C50.6559 179.231 54.1153 180.3 59.7386 176.656C71.57 169.21 79.638 159.126 83.6305 146.606C83.7108 146.113 83.0144 145.24 82.1259 143.829C69.9764 144.639 70.4923 158.651 59.6154 161.947C58.0276 144.215 63.9432 128.463 71.4123 113.47C79.2741 97.7805 88.6491 83.0973 101.827 70.8054C114.693 58.716 129.841 49.7833 146.229 41.8122C162.386 33.5501 179.806 29.5455 198.691 28.5648Z" fill="white"/>
</g>
<path d="M5.95721 285.75C5.18378 286.083 4.69159 286.814 4.69159 287.645C4.69159 288.443 5.18378 289.174 5.95721 289.539L48.7072 308.452C49.2697 308.718 49.9025 308.851 50.5002 308.851V266.605C49.8674 266.605 49.2346 266.738 48.6369 267.004L5.95721 285.75Z" fill="#EE7E39"/>
<path d="M50.5 266.605V308.851C51.168 308.851 51.8359 308.718 52.4336 308.452L95.043 289.606C95.8164 289.274 96.3086 288.542 96.3086 287.711C96.3086 286.914 95.8164 286.182 95.043 285.817L52.3633 267.004C51.7656 266.738 51.1328 266.605 50.5 266.605Z" fill="#F0923E"/>
<path d="M4.69159 230.508C4.69159 231.339 5.18378 232.071 5.95721 232.403L48.7072 251.316C49.2697 251.582 49.9025 251.714 50.5002 251.714C51.0275 251.714 51.59 251.648 52.0822 251.449C52.5041 251.282 52.4338 251.316 53.2775 250.917C57.672 248.989 54.7541 250.285 95.0431 232.436C95.8166 232.104 96.3088 231.373 96.3088 230.542C96.3088 229.744 95.8166 229.013 95.0431 228.647L52.3635 209.867C51.1681 209.336 49.8322 209.336 48.6369 209.867L5.95721 228.614C5.18378 228.946 4.69159 229.677 4.69159 230.508Z" fill="#57BEAD"/>
<path d="M50.5002 254.075V266.606C49.8674 266.606 49.2346 266.739 48.6369 267.005L5.95721 285.751C5.18378 286.083 4.69159 286.815 4.69159 287.646V231.905V230.509C4.69159 231.307 5.18378 232.071 5.95721 232.403L48.7072 251.316C49.2697 251.582 49.9025 251.715 50.5002 251.715C51.0275 251.715 51.59 251.648 52.0822 251.449L52.0119 251.482C50.7111 252.047 50.5002 252.646 50.5002 254.075Z" fill="#D1D1D1"/>
<path d="M226.023 209.997C226.023 211.023 225.439 211.676 224.522 211.676H195.581C194.663 211.676 194.08 211.023 194.08 209.997V206.265C194.08 205.239 194.663 204.586 195.581 204.586H224.522C225.439 204.586 226.023 205.239 226.023 206.265V209.997V209.997ZM238.867 220.444C238.867 221.47 238.283 222.123 237.366 222.123H201.669C200.752 222.123 200.168 221.47 200.168 220.444V216.713C200.168 215.687 200.752 215.034 201.669 215.034H237.032C237.949 215.034 238.533 215.687 238.533 216.713L238.867 220.444ZM248.625 231.358C248.625 232.384 248.041 233.037 247.124 233.037H208.425C207.507 233.037 206.924 232.384 206.924 231.358V227.626C206.924 226.6 207.507 225.947 208.425 225.947H247.124C248.041 225.947 248.625 226.6 248.625 227.626V231.358ZM248.625 242.178C248.625 243.204 248.041 243.857 247.124 243.857H208.425C207.507 243.857 206.924 243.204 206.924 242.178V238.447C206.924 237.421 207.507 236.768 208.425 236.768H247.124C248.041 236.768 248.625 237.421 248.625 238.447V242.178ZM238.867 252.626C238.867 253.652 238.283 254.305 237.366 254.305H201.669C200.752 254.305 200.168 253.652 200.168 252.626V248.894C200.168 247.868 200.752 247.215 201.669 247.215H237.032C237.949 247.215 238.533 247.868 238.533 248.894L238.867 252.626ZM226.023 263.446C226.023 264.472 225.439 265.125 224.522 265.125H195.581C194.663 265.125 194.08 264.472 194.08 263.446V259.715C194.08 258.689 194.663 258.036 195.581 258.036H224.522C225.439 258.036 226.023 258.689 226.023 259.715V263.446V263.446ZM171.227 177.535C171.227 178.561 171.811 179.214 172.728 179.214H201.669C202.587 179.214 203.17 178.561 203.17 177.535V173.804C203.17 172.778 202.587 172.125 201.669 172.125H172.728C171.811 172.125 171.227 172.778 171.227 173.804V177.535ZM158.383 188.356C158.383 189.382 158.967 190.035 159.884 190.035H195.247C196.165 190.035 196.748 189.382 196.748 188.356V184.625C196.748 183.598 196.165 182.945 195.247 182.945H159.884C158.967 182.945 158.383 183.598 158.383 184.625V188.356V188.356ZM148.625 199.176C148.625 200.202 149.209 200.855 150.126 200.855H188.825C189.743 200.855 190.326 200.202 190.326 199.176V195.445C190.326 194.419 189.743 193.766 188.825 193.766H150.126C149.209 193.766 148.625 194.419 148.625 195.445V199.176ZM148.625 209.997C148.625 211.023 149.209 211.676 150.126 211.676H188.825C189.743 211.676 190.326 211.023 190.326 209.997V206.265C190.326 205.239 189.743 204.586 188.825 204.586H150.126C149.209 204.586 148.625 205.239 148.625 206.265V209.997ZM158.383 220.444C158.383 221.47 158.967 222.123 159.884 222.123H195.247C196.165 222.123 196.748 221.47 196.748 220.444V216.713C196.748 215.687 196.165 215.034 195.247 215.034H159.884C158.967 215.034 158.383 215.687 158.383 216.713V220.444V220.444ZM171.227 231.358C171.227 232.384 171.811 233.037 172.728 233.037H201.669C202.587 233.037 203.17 232.384 203.17 231.358V227.626C203.17 226.6 202.587 225.947 201.669 225.947H172.728C171.811 225.947 171.227 226.6 171.227 227.626V231.358Z" fill="#D65846"/>
<g clip-path="url(#clip2_39_7064)">
<path d="M301.702 369.687C296.08 364.687 292.773 357.812 292.773 350C292.773 342.187 296.08 335.312 301.371 330.312C306.001 325.937 306.001 319.062 301.371 314.687C296.741 310.312 289.466 310.312 284.837 314.687C275.577 323.75 269.625 336.25 269.625 350C269.625 363.75 275.577 376.25 285.167 385.312C289.797 389.687 297.072 389.687 301.702 385.312C306.001 380.937 306.001 374.062 301.702 369.687Z" fill="#F9DC4A"/>
<path d="M343.368 369.688C338.077 375 330.802 378.126 322.535 378.126C314.268 378.126 306.993 375.001 301.702 370C297.072 365.625 289.797 365.625 285.167 370C280.538 374.375 280.538 381.251 285.167 385.626C294.757 394.376 307.985 400.001 322.535 400.001C337.085 400.001 350.313 394.376 359.903 385.313C364.532 380.938 364.532 374.063 359.903 369.688C355.273 365.625 347.998 365.625 343.368 369.688Z" fill="#DA646B"/>
<path d="M293.434 388.437C299.827 388.437 305.008 383.54 305.008 377.5C305.008 371.459 299.827 366.562 293.434 366.562C287.042 366.562 281.86 371.459 281.86 377.5C281.86 383.54 287.042 388.437 293.434 388.437Z" fill="#C55161"/>
<path d="M301.702 330.313C306.993 325 314.268 321.875 322.535 321.875C330.802 321.875 338.077 325 343.368 330C347.998 334.375 355.273 334.375 359.903 330C364.532 325.625 364.532 318.75 359.903 314.375C350.313 305.625 337.085 300 322.535 300C307.985 300 294.757 305.625 285.167 314.688C280.538 319.063 280.538 325.938 285.167 330.313C289.797 334.375 297.072 334.375 301.702 330.313Z" fill="#79B1F9"/>
<path d="M293.434 333.438C299.827 333.438 305.008 328.541 305.008 322.501C305.008 316.46 299.827 311.563 293.434 311.563C287.042 311.563 281.86 316.46 281.86 322.501C281.86 328.541 287.042 333.438 293.434 333.438Z" fill="#609FF8"/>
</g>
<g clip-path="url(#clip3_39_7064)">
<path d="M365.323 276.848C373.706 276.134 381.85 275.6 391.095 274.797C389.685 280.152 385.904 282.813 381.979 283.529C370.205 285.676 358.252 287.585 346.243 288.416C339.377 288.921 336.537 283.594 339.554 277.402C344.454 266.993 349.948 256.883 355.264 246.534C355.562 245.936 355.891 245.128 356.337 244.979C357.944 244.142 359.699 243.754 361.483 243.157C361.896 244.713 363.14 246.389 362.75 247.615C361.491 251.923 359.847 255.961 358.41 260.029C357.662 262.273 356.735 264.277 357.291 267.778C360.119 265.835 363.156 263.921 365.984 261.978C422.677 219.284 443.871 146.024 419.34 79.2018C416.122 70.6133 411.981 62.533 408.317 54.0938C407.046 51.1311 405.984 48.1985 404.713 45.2358C405.22 44.6677 405.904 44.3389 406.411 43.7707C408.192 44.6693 410.657 45.239 411.693 46.8851C415.395 52.123 419.097 57.3608 422.084 63.1368C452.019 120.478 443.041 192.937 399.197 243.686C390.792 253.375 380.696 261.537 371.372 270.239C369.406 272.093 367.293 273.498 365.149 275.112C364.88 275.501 364.998 276.159 365.323 276.848Z" fill="white"/>
</g>
<g clip-path="url(#clip4_39_7064)">
<path d="M519.235 138.099C520.326 140.791 521.267 144.233 522.908 146.978C526.383 152.704 530.092 158.198 533.801 163.691C540.887 174.064 548.098 184.485 555.832 195.758C556.725 185.423 552.473 175.834 558.359 165.506C559.462 167.069 560.591 167.833 560.565 168.632C560.254 181.136 562.472 193.008 565.53 204.56C567.952 214.083 564.985 217.296 556.549 215.137C547.742 212.833 538.55 211.512 529.578 209.629C528.106 209.379 526.839 208.237 525.159 207.419C529.994 202.346 529.994 202.346 550.425 204.492C549.253 202.74 548.398 201.273 547.488 199.947C537.963 186.681 528.382 173.554 519.09 160.055C516.098 155.65 513.573 150.781 511.708 145.683C508.393 136.62 511.546 129.272 520.331 125.416C524.812 123.442 529.708 122.601 534.495 122.041C539.886 121.394 545.321 121.734 550.726 121.416C554.55 121.127 558.415 120.369 562.472 119.848C562.685 114.914 560.493 112.116 558.659 109.135C550.868 96.5448 541.511 85.7718 530.684 76.2056C529.416 75.0636 527.915 74.1542 526.936 72.6392C526.412 71.7873 526.396 70.0004 526.834 68.8767C527.054 68.3148 528.855 67.7228 529.653 67.8724C531.814 68.5538 534.113 69.6127 535.876 70.9481C548.587 80.4404 559.266 92.2149 567.61 106.315C569.375 109.108 570.673 112.366 571.545 115.62C573.081 121.56 571.148 126.148 565.58 128.345C561.029 130.13 556.188 130.83 551.457 131.25C544.483 131.928 537.591 131.666 530.617 132.344C526.862 132.821 522.874 133.53 519.235 138.099Z" fill="white"/>
</g>
<g clip-path="url(#clip5_39_7064)">
<path fill-rule="evenodd" clip-rule="evenodd" d="M723.479 277.359C726.586 276.954 729.585 276.004 732.304 274.481C739.019 270.716 742.897 264.243 743.226 256.255L743.255 255.564H752.548C751.976 250.945 750.247 246.546 747.521 242.774L738.014 248.924C740.908 253.493 741.279 258.557 739.084 263.616C736.481 269.608 730.35 274.858 723.479 277.359Z" fill="#CD392B"/>
<path fill-rule="evenodd" clip-rule="evenodd" d="M752.689 257.006H744.618C744.075 265.086 739.867 271.89 733 275.741C729.08 277.938 724.618 279.032 720.063 279.032C716.456 279.022 712.88 278.356 709.512 277.066C713.641 279.662 718.281 281.083 723.089 281.098H723.163C731.844 281.098 739.636 276.469 744.019 268.706L744.391 268.051L749.791 271.5C751.751 267.626 752.771 263.344 752.767 259.002C752.767 258.329 752.734 257.665 752.689 257.006Z" fill="#CD392B"/>
<path fill-rule="evenodd" clip-rule="evenodd" d="M723.163 282.538H723.086C714.437 282.513 706.31 278.199 700.526 270.769C704.921 280.141 714.388 286.644 725.339 286.644C735.491 286.644 744.364 281.053 749.107 272.77L744.884 270.073C740.18 277.898 732.12 282.538 723.163 282.538Z" fill="#CD392B"/>
<path fill-rule="evenodd" clip-rule="evenodd" d="M725.339 219C703.417 219 685.647 236.909 685.647 259C685.647 281.091 703.417 299 725.339 299C747.26 299 765.03 281.093 765.03 259C765.03 236.907 747.262 219 725.339 219ZM725.339 288.086C709.4 288.086 696.478 275.064 696.478 259C696.478 242.938 709.4 229.916 725.339 229.916C741.277 229.916 754.198 242.938 754.198 259C754.198 275.064 741.277 288.086 725.339 288.086Z" fill="#CD392B"/>
</g>
<path fill-rule="evenodd" clip-rule="evenodd" d="M612.167 248.285L598.418 256.157L584.67 264.03L570.921 271.907V319.151L584.67 311.274L598.418 303.402V287.652L584.67 295.529V279.779L598.418 271.907L612.167 264.03V311.274L598.418 319.151L584.67 327.024L570.921 334.896L557.172 342.769L570.921 350.646L584.67 342.769L598.418 334.896L612.167 327.024L625.92 319.151V240.408L612.167 232.535V248.285Z" fill="white"/>
<g clip-path="url(#clip6_39_7064)">
<path d="M256.32 165.415C259.973 163.459 263.12 161.618 266.251 159.942C276.898 153.878 284.656 145.377 289.101 133.736C292.243 125.275 292.073 116.985 287.385 109.406C282.697 101.827 277.325 94.512 272.278 87.2289C269.681 83.4974 266.889 80.0775 264.456 76.362C260.34 69.6673 260.777 65.2424 265.519 58.926C271.206 51.3791 279.702 47.0882 290.99 46.2171C290.676 41.0562 286.793 40.3417 283.286 40.8228C278.947 41.3872 274.396 42.4272 270.581 44.3671C266.243 46.5865 261.988 49.6413 258.679 53.1207C250.236 61.8848 249.182 70.8822 255.406 81.2602C259.081 87.4149 263.653 92.8309 267.687 98.6901C271.443 104.026 275.183 109.525 278.744 115.172C281.455 119.411 281.654 124.064 280.353 128.9C278.304 136.31 274.263 142.199 268.182 147.059C266.926 148.094 265.687 148.964 264.285 149.819C258.317 153.532 252.35 157.245 245.86 161.238C249.506 151.007 252.908 141.58 256.327 131.988C256.343 131.824 255.576 131.252 254.972 130.696C254.254 131.287 253.064 131.666 252.673 132.289C247.362 141.032 241.724 149.742 237.196 158.893C233.695 165.994 235.542 170.644 242.852 173.352C249.2 175.799 256.003 176.967 262.66 177.956C264.275 178.281 267.112 176.244 267.926 174.67C268.513 173.735 266.846 170.591 265.459 169.627C263.01 167.73 259.959 166.933 256.32 165.415Z" fill="white"/>
</g>
<defs>
<clipPath id="clip0_39_7064">
<rect width="202.094" height="45.5075" fill="white" transform="translate(642.912 14.9407) rotate(58.7685)"/>
</clipPath>
<clipPath id="clip1_39_7064">
<rect width="158.713" height="174.664" fill="white" transform="matrix(-0.987032 -0.160525 -0.160525 0.987032 199.193 25.4775)"/>
</clipPath>
<clipPath id="clip2_39_7064">
<rect width="100" height="100" fill="white" transform="translate(266.5 300)"/>
</clipPath>
<clipPath id="clip3_39_7064">
<rect width="251" height="81" fill="white" transform="translate(337.5 287.423) rotate(-81.7831)"/>
</clipPath>
<clipPath id="clip4_39_7064">
<rect width="132.223" height="88.7417" fill="white" transform="translate(610.237 99.26) rotate(111.317)"/>
</clipPath>
<clipPath id="clip5_39_7064">
<rect width="80" height="80" fill="white" transform="translate(686 219)"/>
</clipPath>
<clipPath id="clip6_39_7064">
<rect width="138.849" height="51.4834" fill="white" transform="matrix(-0.0982764 0.995159 0.995159 0.0982764 248.085 37)"/>
</clipPath>
</defs>
</svg>
